PathFileType	4	(X/Y/Z)
DataRate	CameraRate	NumFrames	NumMarkers	Units	OrigDataRate	OrigDataStartFrame	OrigNumFrames
120	120	4	142	mm	120	355	473	
Frame#	Time	 STRN			 T1			 T8			 T10			 T12			 C7			 CLAV			 LANK			 RANK			 LANI			 RANI			 LASI			 RASI			 LPSI			 RPSI			 LSHO			 RSHO			 LTOE			 RTOE			 RHEE			 LHEE			 LKNE			 RKNE			 LKNI			 RKNI			 RIWR			 LIWR			 RELB			 LELB			 RELBIN			 LELBIN			 LOWR			 ROWR			 RCLAV			 LCLAV			 RFHD			 LBHD			 LFHD			 RBHD			 LMT1			 LMT5			 RMT1			 RMT5			 Tracking_L5			 Tracking_L4			 Tracking_L3			 Tracking_L2			 Tracking_L1			 Tracking_T11			 Tracking_T9			 Tracking_T7			 Tracking_T6			 Tracking_T5			 Tracking_T4			 Tracking_T3			 Tracking_T2			 rthumb			 rindex			 rmiddle			 rring			 rpinky			 lthumb			 lindex			 lmiddle			 lring			 lpinky			 ROOT			 Spine1			 Spine2			 Spine3			 LHIPJ			 RHIPJ			 LKJC			 RKJC			 LAJC			 RAJC			 LFOOT			 RFOOT			 NECK			 LCOL			 RCOL			 HEAD			 LSHOULDER			 RSHOULDER			 LELC			 RELC			 LWRIST			 RWRIST			 left_index1			 left_index2			 left_index3			 left_middle1			 left_middle2			 left_middle3			 left_pinky1			 left_pinky2			 left_pinky3			 left_ring1			 left_ring2			 left_ring3			 left_thumb1			 left_thumb2			 left_thumb3			 right_index1			 right_index2			 right_index3			 right_middle1			 right_middle2			 right_middle3			 right_pinky1			 right_pinky2			 right_pinky3			 right_ring1			 right_ring2			 right_ring3			 right_thumb1			 right_thumb2			 right_thumb3			 MASI			 MPSI			 MHIPJ			 CENTER			 Virtual_LWRIST			 Virtual_RWRIST			 Virtual_LAJC			 Virtual_RAJC			 Virtual_LKJC			 Virtual_RKJC			 Virtual_LELC			 Virtual_RELC			 Virtual_Ground_RAJC			 Virtual_Ground_LAJC			 Virtual_Ground_RFOOT			 Virtual_Ground_LFOOT			 Virtual_Ground_RTOE			 Virtual_Ground_LTOE			 Virtual_Ground_RMT1			 Virtual_Ground_LMT1			 Virtual_Ground_RMT5			 Virtual_Ground_LMT5			 Virtual_Ground_RHEE			 Virtual_Ground_LHEE		
		X1	Y1	Z1	X2	Y2	Z2	X3	Y3	Z3	X4	Y4	Z4	X5	Y5	Z5	X6	Y6	Z6	X7	Y7	Z7	X8	Y8	Z8	X9	Y9	Z9	X10	Y10	Z10	X11	Y11	Z11	X12	Y12	Z12	X13	Y13	Z13	X14	Y14	Z14	X15	Y15	Z15	X16	Y16	Z16	X17	Y17	Z17	X18	Y18	Z18	X19	Y19	Z19	X20	Y20	Z20	X21	Y21	Z21	X22	Y22	Z22	X23	Y23	Z23	X24	Y24	Z24	X25	Y25	Z25	X26	Y26	Z26	X27	Y27	Z27	X28	Y28	Z28	X29	Y29	Z29	X30	Y30	Z30	X31	Y31	Z31	X32	Y32	Z32	X33	Y33	Z33	X34	Y34	Z34	X35	Y35	Z35	X36	Y36	Z36	X37	Y37	Z37	X38	Y38	Z38	X39	Y39	Z39	X40	Y40	Z40	X41	Y41	Z41	X42	Y42	Z42	X43	Y43	Z43	X44	Y44	Z44	X45	Y45	Z45	X46	Y46	Z46	X47	Y47	Z47	X48	Y48	Z48	X49	Y49	Z49	X50	Y50	Z50	X51	Y51	Z51	X52	Y52	Z52	X53	Y53	Z53	X54	Y54	Z54	X55	Y55	Z55	X56	Y56	Z56	X57	Y57	Z57	X58	Y58	Z58	X59	Y59	Z59	X60	Y60	Z60	X61	Y61	Z61	X62	Y62	Z62	X63	Y63	Z63	X64	Y64	Z64	X65	Y65	Z65	X66	Y66	Z66	X67	Y67	Z67	X68	Y68	Z68	X69	Y69	Z69	X70	Y70	Z70	X71	Y71	Z71	X72	Y72	Z72	X73	Y73	Z73	X74	Y74	Z74	X75	Y75	Z75	X76	Y76	Z76	X77	Y77	Z77	X78	Y78	Z78	X79	Y79	Z79	X80	Y80	Z80	X81	Y81	Z81	X82	Y82	Z82	X83	Y83	Z83	X84	Y84	Z84	X85	Y85	Z85	X86	Y86	Z86	X87	Y87	Z87	X88	Y88	Z88	X89	Y89	Z89	X90	Y90	Z90	X91	Y91	Z91	X92	Y92	Z92	X93	Y93	Z93	X94	Y94	Z94	X95	Y95	Z95	X96	Y96	Z96	X97	Y97	Z97	X98	Y98	Z98	X99	Y99	Z99	X100	Y100	Z100	X101	Y101	Z101	X102	Y102	Z102	X103	Y103	Z103	X104	Y104	Z104	X105	Y105	Z105	X106	Y106	Z106	X107	Y107	Z107	X108	Y108	Z108	X109	Y109	Z109	X110	Y110	Z110	X111	Y111	Z111	X112	Y112	Z112	X113	Y113	Z113	X114	Y114	Z114	X115	Y115	Z115	X116	Y116	Z116	X117	Y117	Z117	X118	Y118	Z118	X119	Y119	Z119	X120	Y120	Z120	X121	Y121	Z121	X122	Y122	Z122	X123	Y123	Z123	X124	Y124	Z124	X125	Y125	Z125	X126	Y126	Z126	X127	Y127	Z127	X128	Y128	Z128	X129	Y129	Z129	X130	Y130	Z130	X131	Y131	Z131	X132	Y132	Z132	X133	Y133	Z133	X134	Y134	Z134	X135	Y135	Z135	X136	Y136	Z136	X137	Y137	Z137	X138	Y138	Z138	X139	Y139	Z139	X140	Y140	Z140	X141	Y141	Z141	X142	Y142	Z142

355	2.9500	327.854425	-466.122568	1106.692672	360.382468	-336.177319	1421.092510	357.505172	-208.143741	1237.005472	353.027374	-200.608298	1182.331920	347.241551	-201.233312	1125.924230	359.054267	-365.231872	1436.913252	340.358883	-455.050588	1306.204319	450.244963	-223.461345	54.317955	252.983749	-225.125134	48.428778	388.856709	-223.966211	75.702608	312.686086	-237.473339	74.875534	450.548738	-384.535611	868.546426	181.602150	-353.332222	870.275855	404.496700	-160.694569	952.142000	283.544034	-149.279669	957.046032	482.838541	-393.417984	1365.096331	219.113350	-372.878313	1378.826499	424.426794	-401.592255	-2.452906	254.328400	-408.363461	0.786248	313.388824	-177.111283	-7.060823	410.252482	-158.966348	-3.200826	498.688400	-401.298106	434.973419	155.473858	-378.473014	427.758127	389.740497	-401.804984	428.252697	267.650455	-398.817122	428.580552	-236.268237	-369.810194	963.838041	905.332327	-333.269536	915.056229	-43.213207	-275.775701	1120.246887	708.395839	-277.774096	1081.701994	13.129096	-299.184680	1048.145056	647.607088	-309.406281	1018.236279	885.182381	-283.693582	888.530493	-232.582822	-312.263280	942.592323	267.863780	-429.864436	1330.855489	421.379626	-443.405211	1320.966840	290.084690	-625.231445	1458.264351	412.179887	-588.473141	1569.216132	391.272753	-636.825264	1446.683168	311.645389	-576.002300	1581.374168	423.590571	-347.750634	18.310729	490.013719	-320.812225	-0.894901	258.812577	-356.891453	19.259516	191.905499	-320.259959	-6.538447	341.080606	-174.569950	993.738592	340.382218	-185.843721	1018.785477	341.024965	-195.969775	1048.053265	341.777146	-200.693652	1073.650599	344.011575	-201.550737	1099.150777	350.325078	-200.633124	1153.331637	355.566382	-203.469798	1210.633874	358.868897	-214.070410	1259.924531	360.827327	-229.502261	1298.740864	361.919850	-246.888861	1329.246163	361.972690	-274.979860	1368.609428	361.534417	-294.046134	1389.948249	361.242205	-312.891543	1405.278921	-329.247087	-419.783503	863.092244	-367.608279	-390.080750	852.189064	-368.020922	-364.782333	843.151510	-350.514680	-350.533187	843.695402	-333.586186	-327.054799	848.219216	1010.990858	-362.964928	823.653817	1029.613018	-333.978295	804.275811	1024.974227	-314.330935	792.104721	1005.701065	-304.886997	792.948008	984.673381	-283.329993	796.213150	327.215850	-292.723924	878.660679	337.818623	-255.299538	1005.315065	344.697982	-319.427609	1123.109460	343.843371	-338.972032	1172.655582	388.092399	-279.180676	795.868158	263.402164	-273.715794	789.671540	455.634594	-396.194935	438.046873	199.448049	-382.184595	429.472655	406.087667	-229.053974	49.814407	298.201621	-238.872200	49.432401	463.329911	-341.178596	-12.977775	220.188648	-348.543704	-9.894367	345.044553	-392.493546	1377.179265	423.056364	-374.493301	1279.132485	269.705415	-356.018662	1292.850137	348.372042	-478.866071	1415.807486	555.243671	-349.184304	1268.483639	146.662250	-334.697574	1290.870667	676.224053	-297.128707	1047.015429	-11.554767	-291.200727	1083.425641	895.227671	-310.329705	893.720329	-235.810593	-341.053635	941.625357	1000.005722	-322.052121	868.913352	1028.490067	-323.982805	852.060080	1030.870795	-328.767598	829.376101	1003.961325	-297.502518	863.176584	1027.335405	-295.457155	841.427386	1028.529286	-301.731765	817.576468	970.312357	-263.196021	849.369526	980.997980	-262.065947	832.006216	982.912958	-269.357800	813.714504	987.459242	-276.660651	856.421351	1008.504391	-279.171765	835.722685	1009.282827	-288.573027	813.027859	937.747002	-339.788377	872.142494	960.455835	-355.045885	855.822027	985.798776	-360.659927	847.378373	-334.485859	-379.202425	919.379115	-363.599688	-384.946674	902.864099	-366.367012	-386.320233	879.576921	-345.497161	-354.370356	917.003870	-370.260984	-355.156392	896.482706	-371.174842	-358.140886	872.123182	-322.551757	-310.564429	905.212402	-333.363265	-309.834391	887.937725	-333.945900	-314.924031	868.909240	-335.429758	-328.404665	911.890090	-356.704742	-332.459033	891.655385	-356.074780	-338.092089	867.588162	-267.783791	-380.609989	918.756604	-285.532683	-398.868233	898.710310	-308.577627	-409.829259	887.563050	316.075444	-368.933916	869.411141	344.020367	-154.987119	954.594016	325.747281	-276.448235	792.769849	330.047905	-261.960518	912.002578	895.257354	-308.481559	901.793361	-234.425530	-341.036737	953.215182	419.550836	-223.713778	65.010281	282.834917	-231.299236	61.652156	444.214448	-401.551545	431.613058	211.562157	-388.645068	428.169340	678.001463	-293.590188	1049.969137	-15.042056	-287.480190	1084.195971	282.834917	-711.902976	61.652156	419.550836	-711.902976	65.010281	220.188648	-711.902976	-9.894367	463.329911	-711.902976	-12.977775	254.328400	-711.902976	0.786248	424.426794	-711.902976	-2.452906	258.812577	-711.902976	19.259516	423.590571	-711.902976	18.310729	191.905499	-711.902976	-6.538447	490.013719	-711.902976	-0.894901	313.388824	-711.902976	-7.060823	410.252482	-711.902976	-3.200826
356	2.9583	328.257203	-463.637948	1103.214502	360.715091	-335.913032	1418.473125	357.635736	-206.286550	1235.069275	353.156954	-198.409215	1180.296063	347.377360	-198.775172	1123.733282	359.416008	-365.043879	1434.125423	340.813220	-453.852743	1302.728653	449.858338	-222.160503	55.886250	253.341079	-224.200979	48.488479	388.569087	-222.611561	77.184424	313.191980	-236.162752	74.621305	450.328439	-382.734925	867.034912	181.432590	-351.946235	868.879557	404.313445	-158.126727	949.299514	283.276767	-146.825433	954.477012	483.791560	-393.014759	1361.289263	218.733877	-372.926682	1375.249863	423.872381	-400.097162	-0.945824	254.801065	-407.331377	1.261932	313.102603	-175.722122	-7.403511	410.280228	-157.382920	-1.634615	498.529047	-404.675692	434.411496	157.094046	-380.775154	426.609784	389.625371	-404.803485	427.542537	269.490182	-399.812758	427.595288	-223.819301	-363.477618	944.283068	893.890977	-329.982370	898.515880	-37.181187	-273.420721	1110.685706	702.880383	-276.893705	1072.784543	21.824462	-294.453770	1039.981723	639.918506	-307.610363	1011.031508	872.750998	-280.099690	873.297155	-219.741389	-305.283040	925.077260	268.192053	-429.142565	1327.303290	421.792984	-442.390293	1317.262530	289.798349	-624.951005	1453.897715	411.891669	-589.127481	1565.195203	391.010880	-636.805713	1442.388654	311.380297	-576.376617	1577.274084	423.033804	-346.247226	19.767743	489.520043	-319.407314	0.676972	259.491950	-355.794132	19.498687	192.224130	-319.322050	-5.747813	340.989947	-171.884194	991.266072	340.357304	-183.128312	1016.399145	341.056496	-193.257198	1045.718193	341.860205	-198.052824	1071.354985	344.114542	-198.993906	1096.880317	350.456774	-198.277459	1151.216745	355.694652	-201.430291	1208.657146	359.001875	-212.390423	1258.012414	361.004949	-228.148460	1296.805620	362.125516	-245.812431	1327.226043	362.188071	-274.311244	1366.406202	361.773103	-293.558657	1387.590051	361.521512	-312.518090	1402.787447	-311.897576	-411.077380	838.148654	-350.085497	-381.279081	826.493204	-350.359321	-355.654985	818.200886	-332.998812	-341.321081	819.936693	-316.450655	-317.876965	825.953543	996.208310	-358.642280	803.100407	1014.145732	-329.472423	783.392906	1009.073853	-309.641570	771.569729	989.824533	-300.233841	773.163557	968.841314	-278.725207	777.429998	327.033013	-290.860653	876.600802	337.887317	-252.588898	1002.980351	344.929069	-317.215115	1120.492578	344.116718	-337.077647	1169.912696	387.707263	-277.806073	793.581605	262.997895	-272.503883	787.633955	455.550879	-399.313360	437.318236	200.930044	-383.973986	428.021908	405.728072	-227.499798	51.166337	298.837781	-237.507671	48.966508	462.864041	-339.775920	-11.451620	220.544487	-347.591728	-9.215849	345.391423	-391.995490	1374.065518	423.374921	-373.254269	1276.135087	270.008951	-355.013222	1289.996505	348.645717	-478.558272	1412.271857	555.507243	-348.398596	1263.860345	146.909192	-334.222287	1286.486864	669.572651	-295.716375	1038.898349	-4.186260	-287.522435	1074.479103	883.057237	-306.823254	877.848029	-222.813174	-334.069103	923.088908	986.882269	-318.166703	849.161386	1014.741898	-319.892496	831.273139	1016.306877	-324.445426	808.470845	990.607262	-293.555707	843.534410	1013.179898	-291.262537	820.978224	1013.518095	-297.294885	797.037482	956.452668	-259.152979	831.297696	966.504037	-257.834822	813.572645	967.764199	-264.939517	795.150936	973.854303	-272.667021	837.589920	994.141281	-274.943531	816.121459	994.108617	-284.114540	793.319345	924.795806	-336.010814	854.453921	946.914256	-351.075172	837.171555	971.940994	-356.572777	827.763140	-320.082664	-372.219592	895.336092	-348.389864	-377.660066	877.378941	-350.115776	-378.334314	853.960931	-331.189811	-347.405642	893.233538	-355.017006	-347.735643	871.620178	-354.830325	-349.973649	847.164392	-308.121026	-303.093463	883.812845	-318.166077	-301.908314	866.106093	-317.865610	-306.412518	846.924126	-321.128428	-321.223050	889.365673	-341.455102	-324.803561	868.093312	-339.716434	-329.686731	843.917072	-253.408432	-373.129189	897.628963	-270.099759	-390.887022	876.267850	-292.536438	-401.663780	863.780618	315.880515	-367.340580	867.957234	343.795106	-152.476080	951.888263	325.352579	-275.154978	790.607780	329.837810	-259.908330	909.922749	883.320987	-305.041030	885.906518	-221.780345	-334.380329	934.680164	419.213712	-222.386032	66.535337	283.266529	-230.181865	61.554892	444.077209	-404.739588	430.977017	213.292114	-390.293956	427.102536	671.399444	-292.252034	1041.908026	-7.678363	-283.937246	1075.333714	283.266529	-711.902976	61.554892	419.213712	-711.902976	66.535337	220.544487	-711.902976	-9.215849	462.864041	-711.902976	-11.451620	254.801065	-711.902976	1.261932	423.872381	-711.902976	-0.945824	259.491950	-711.902976	19.498687	423.033804	-711.902976	19.767743	192.224130	-711.902976	-5.747813	489.520043	-711.902976	0.676972	313.102603	-711.902976	-7.403511	410.280228	-711.902976	-1.634615
357	2.9667	328.658521	-461.355329	1100.403905	361.210376	-335.593790	1416.433334	357.806772	-204.577640	1233.555436	353.304356	-196.419239	1178.667545	347.534984	-196.594179	1121.950269	359.945744	-364.838868	1431.945562	341.329247	-452.666789	1299.942374	449.404359	-220.833972	57.253189	253.346771	-223.446131	48.822470	388.247639	-221.132413	78.517981	313.305497	-235.004932	74.745484	450.222820	-381.364226	865.902901	181.473017	-350.986332	867.825210	404.214919	-156.018272	946.885884	283.113778	-144.801766	952.239275	484.825432	-392.495960	1358.075380	218.485758	-372.785121	1372.344136	423.030734	-398.649007	0.534004	255.155951	-406.330079	1.514501	312.580734	-174.352407	-7.226997	410.262585	-155.791998	-0.274115	498.319924	-407.195568	433.915049	158.407271	-383.176178	425.849825	389.474452	-406.843096	427.019149	270.989984	-400.820702	426.941335	-210.787222	-357.546955	925.894558	882.276654	-326.964825	883.056998	-30.887054	-271.543980	1101.823092	697.400272	-276.210099	1064.664245	30.722274	-290.413529	1032.737255	632.336974	-306.012332	1004.666090	860.244095	-276.744723	859.241426	-206.354305	-298.787624	908.735335	268.594682	-428.356856	1324.456930	422.283083	-441.352814	1314.209580	289.552212	-624.722242	1449.884653	411.755592	-590.049267	1561.507821	390.798151	-636.816442	1438.359737	311.277747	-577.027321	1573.609948	422.208220	-344.753176	21.154827	488.771528	-318.072408	2.115435	259.953171	-354.781508	19.650644	192.394614	-318.459600	-5.143159	340.969473	-169.618726	989.167273	340.391487	-180.817977	1014.389277	341.138035	-190.928057	1043.768287	341.985047	-195.766315	1069.453955	344.251573	-196.756706	1095.008731	350.604832	-196.164384	1149.508953	355.848998	-199.569866	1207.092166	359.187603	-210.827485	1256.531119	361.258239	-226.850227	1295.316935	362.428874	-244.747296	1325.677037	362.531334	-273.602396	1364.721060	362.149030	-293.013096	1385.776877	361.950129	-312.075585	1400.854945	-294.104993	-402.400047	814.840019	-332.067549	-372.412592	802.545071	-332.213640	-346.493304	795.030236	-315.024436	-332.153857	797.918499	-298.873305	-308.821768	805.375099	981.098831	-354.469419	783.700049	998.333216	-325.091571	763.715744	992.846668	-305.076450	752.293169	973.659158	-295.704156	754.657209	952.779531	-274.258256	759.967983	326.968342	-289.372385	874.972463	337.981582	-250.236750	1001.073480	345.174670	-315.151930	1118.417025	344.397634	-335.277319	1167.731285	387.499988	-276.819259	791.772008	262.776256	-271.680444	785.984099	455.464065	-401.585966	436.660081	202.121839	-385.832548	426.972687	405.265808	-225.862950	52.320309	299.089581	-236.314163	48.868485	462.084949	-338.444024	-10.037952	220.735341	-346.658409	-8.736127	345.862031	-391.454548	1371.539950	423.761427	-372.036844	1273.674369	270.388335	-354.022712	1287.752151	348.972321	-478.209198	1409.320712	555.785298	-347.427368	1259.836555	147.279248	-333.588064	1282.781482	662.986219	-294.501066	1031.580091	3.414793	-284.428328	1066.345930	870.773077	-303.566277	863.120437	-209.258005	-327.544868	905.739069	973.488569	-314.503819	830.545366	1000.678897	-316.005170	811.636209	1001.414061	-320.297927	788.741708	976.997435	-289.827704	825.066566	998.732805	-287.261456	801.730990	998.201013	-293.021560	777.726829	942.407727	-255.314589	814.473331	951.806486	-253.787726	796.410203	952.397466	-260.682017	777.875245	960.031748	-268.885791	819.973826	979.524255	-270.903021	797.756433	978.664458	-279.814780	774.867892	911.642373	-332.454503	837.891936	933.122098	-347.304851	819.645584	957.791507	-352.676123	809.270263	-305.029988	-365.343392	872.784197	-332.529902	-370.375067	853.502274	-333.277881	-370.325536	830.023050	-316.208959	-340.537339	870.991766	-339.115918	-340.321988	848.403990	-337.899268	-341.792375	823.919535	-293.071270	-295.825571	863.921106	-302.380681	-294.142187	845.856309	-301.253796	-298.042089	826.572955	-306.174219	-314.191461	868.361354	-325.575769	-317.216367	846.159160	-322.802126	-321.330816	821.936488	-238.503739	-365.956932	877.825499	-254.172981	-383.129179	855.246127	-275.998235	-393.633276	841.505826	315.847918	-366.175279	866.864055	343.664348	-150.410019	949.562579	325.138122	-274.249852	788.878053	329.756133	-258.292649	908.213317	871.260375	-301.854774	871.149212	-208.570763	-328.167289	917.314947	418.825999	-220.983192	67.885585	283.326134	-229.225531	61.783977	443.897188	-407.019332	430.467099	214.698628	-391.998440	426.395580	664.868623	-291.111216	1034.665167	-0.082390	-280.978754	1067.280173	283.326134	-711.902976	61.783977	418.825999	-711.902976	67.885585	220.735341	-711.902976	-8.736127	462.084949	-711.902976	-10.037952	255.155951	-711.902976	1.514501	423.030734	-711.902976	0.534004	259.953171	-711.902976	19.650644	422.208220	-711.902976	21.154827	192.394614	-711.902976	-5.143159	488.771528	-711.902976	2.115435	312.580734	-711.902976	-7.226997	410.262585	-711.902976	-0.274115
358	2.9750	329.066157	-459.391266	1098.165751	361.687988	-335.308075	1414.878011	357.988805	-203.093812	1232.384205	353.479177	-194.723949	1177.375674	347.743154	-194.777891	1120.510817	360.442847	-364.694774	1430.273414	341.836095	-451.589882	1297.729015	448.837370	-219.546795	58.122333	253.079653	-222.863585	49.386974	387.791306	-219.689056	79.297662	313.097358	-234.022334	75.178027	450.238913	-380.326778	864.990354	181.671605	-350.318670	866.957545	404.190451	-154.358476	944.989979	283.030897	-143.200472	950.419486	485.842705	-392.021477	1355.387211	218.250751	-372.635931	1369.898438	422.326446	-397.377193	1.718221	255.437702	-405.420601	1.590667	311.878592	-173.042417	-6.617488	410.152316	-154.350117	0.467477	497.901082	-408.644646	433.336884	159.435540	-385.578215	425.444096	389.117032	-407.785773	426.503867	272.162706	-401.867270	426.557928	-197.243959	-352.098465	908.687055	870.583117	-324.359715	868.675292	-24.341408	-270.077854	1093.505740	691.912830	-276.020676	1057.242751	39.801564	-286.835760	1026.168704	624.855220	-304.957867	999.010146	847.766578	-273.762137	846.382737	-192.626923	-292.834640	893.606186	268.993616	-427.633882	1322.128296	422.756106	-440.414518	1311.724544	289.390296	-624.638796	1446.194768	411.661714	-591.114044	1558.177710	390.679389	-636.876822	1434.643269	311.204612	-577.915192	1570.306778	421.393633	-343.395233	22.205530	488.066167	-316.827059	3.328262	260.259002	-353.893191	19.740460	192.476928	-317.713618	-4.705252	341.000557	-167.821497	987.466037	340.473980	-178.977475	1012.753248	341.270745	-189.056620	1042.178392	342.168689	-193.911299	1067.907453	344.451189	-194.918409	1093.486547	350.794226	-194.381177	1148.140311	356.020838	-197.969586	1205.865502	359.380186	-209.456116	1255.397677	361.516029	-225.685894	1294.189930	362.739593	-243.779942	1324.507475	362.883508	-272.946775	1363.446593	362.527639	-292.506605	1384.395719	362.374902	-311.661065	1399.376392	-275.806338	-394.037187	793.111801	-313.578516	-363.856673	780.288815	-313.659817	-337.661982	773.583829	-296.695203	-323.338121	777.586997	-281.000167	-300.158888	786.441147	965.682983	-350.622773	765.414417	982.242346	-321.026415	745.227873	976.385415	-300.797313	734.275639	957.304597	-291.438878	737.438738	936.604381	-270.044625	743.850827	327.012211	-288.184136	873.645902	338.079780	-248.357579	999.525607	345.465302	-313.384473	1116.795301	344.691366	-333.746552	1166.012406	387.470663	-276.021779	790.334225	262.737781	-271.035105	784.610689	455.215931	-402.816385	435.899436	203.021556	-387.702882	426.251352	404.656738	-224.285319	52.903410	299.046099	-235.284314	49.065467	461.370856	-337.237835	-8.876028	220.863670	-345.820069	-8.405210	346.322358	-390.949398	1369.534135	424.148142	-370.972276	1271.722674	270.768046	-353.159815	1285.980105	349.256575	-477.924407	1406.819105	556.035817	-346.559405	1256.325006	147.687435	-332.962573	1279.549122	656.432629	-293.812037	1024.954438	11.254038	-281.750560	1058.820128	858.472526	-300.687850	849.543989	-195.306271	-321.537465	889.606833	959.902227	-311.273396	813.058436	986.374915	-312.542140	793.140829	986.259758	-316.524565	770.178914	963.240921	-286.528349	807.788193	984.104872	-283.665001	783.703804	982.680678	-289.098471	759.659886	928.332090	-251.844108	798.945427	937.060714	-250.080645	780.570328	936.958551	-256.723344	761.934638	946.128070	-265.504271	803.608239	964.785576	-267.237186	780.661881	963.070333	-275.836855	757.702172	898.344040	-329.267323	822.437167	919.116020	-343.887776	803.211987	943.378806	-349.139661	791.862309	-289.412111	-358.861119	851.685047	-316.088051	-363.446683	831.173480	-315.905422	-362.653852	807.696402	-300.696343	-334.080458	850.233018	-322.691232	-333.287925	826.768577	-320.494384	-333.970010	802.317858	-277.631372	-289.023280	845.505536	-286.229998	-286.823124	827.146351	-284.310788	-290.099680	807.809651	-290.762395	-307.602346	848.837852	-309.245795	-310.038894	825.795889	-305.483848	-313.362300	801.585078	-223.135144	-359.221727	859.350920	-237.768620	-375.762969	835.634112	-258.953184	-385.959387	820.710242	315.955259	-365.322724	865.973949	343.610674	-148.779474	947.704732	325.104222	-273.528442	787.472457	329.782967	-257.051099	906.839341	859.174848	-299.060926	857.529014	-194.935441	-322.466552	901.146621	418.314338	-219.617926	68.709997	283.088505	-228.442959	62.282501	443.509057	-408.215210	429.920375	215.799123	-393.722743	426.001012	658.384025	-290.489271	1028.126448	7.730078	-278.456807	1059.837222	283.088505	-711.902976	62.282501	418.314338	-711.902976	68.709997	220.863670	-711.902976	-8.405210	461.370856	-711.902976	-8.876028	255.437702	-711.902976	1.590667	422.326446	-711.902976	1.718221	260.259002	-711.902976	19.740460	421.393633	-711.902976	22.205530	192.476928	-711.902976	-4.705252	488.066167	-711.902976	3.328262	311.878592	-711.902976	-6.617488	410.152316	-711.902976	0.467477
